<svg xmlns="http://www.w3.org/2000/svg" width="24" height="24" viewBox="0 0 24 24"><mask id="lineMdCloudAltBraces0"><g fill="none" stroke="#fff" stroke-linecap="round" stroke-linejoin="round" stroke-width="2"><path stroke-dasharray="64" stroke-dashoffset="64" d="M7 19h11c2.21 0 4 -1.79 4 -4c0 -2.21 -1.79 -4 -4 -4h-1v-1c0 -2.76 -2.24 -5 -5 -5c-2.42 0 -4.44 1.72 -4.9 4h-0.1c-2.76 0 -5 2.24 -5 5c0 2.76 2.24 5 5 5Z"><animate fill="freeze" attributeName="stroke-dashoffset" dur="0.6s" values="64;0"/><set fill="freeze" attributeName="opacity" begin="0.7s" to="0"/></path><g fill="#fff" stroke="none" opacity="0"><circle cx="12" cy="10" r="6"/><rect width="9" height="8" x="8" y="12"/><rect width="15" height="12" x="1" y="8" rx="6"/><rect width="13" height="10" x="10" y="10" rx="5"/><set fill="freeze" attributeName="opacity" begin="0.7s" to="1"/></g><g fill="#000" fill-opacity="0" stroke="none"><circle cx="12" cy="10" r="4"/><rect width="9" height="6" x="8" y="12"/><rect width="11" height="8" x="3" y="10" rx="4"/><rect width="9" height="6" x="12" y="12" rx="3"/><set fill="freeze" attributeName="fill-opacity" begin="0.7s" to="1"/><animate fill="freeze" attributeName="opacity" begin="0.7s" dur="0.5s" values="1;0"/></g><path fill="#000" stroke="none" d="M12 13c0 0 0 -0.9 0 -2v-1h0v-2h0c0 0 0 0.9 0 2v1c0 0.55 0 1 0 1h0v2h0c0 0 0 0.45 0 1v1c0 1.1 0 2 0 2h0v-2h0v-1c0 -1.1 0 -2 0 -2ZM12 13c0 0 0 -0.9 0 -2v-1h0v-2h0c0 0 0 0.9 0 2v1c0 0.55 0 1 0 1h0v2h0c0 0 0 0.45 0 1v1c0 1.1 0 2 0 2h0v-2h0v-1c0 -1.1 0 -2 0 -2Z"><animate fill="freeze" attributeName="d" begin="1.3s" dur="0.2s" values="M12 13c0 0 0 -0.9 0 -2v-1h0v-2h0c0 0 0 0.9 0 2v1c0 0.55 0 1 0 1h0v2h0c0 0 0 0.45 0 1v1c0 1.1 0 2 0 2h0v-2h0v-1c0 -1.1 0 -2 0 -2ZM12 13c0 0 0 -0.9 0 -2v-1h0v-2h0c0 0 0 0.9 0 2v1c0 0.55 0 1 0 1h0v2h0c0 0 0 0.45 0 1v1c0 1.1 0 2 0 2h0v-2h0v-1c0 -1.1 0 -2 0 -2Z;M7 13c1.1 0 2 -0.9 2 -2v-1h1.5v-2h-1.5c-1.1 0 -2 0.9 -2 2v1c0 0.55 -0.45 1 -1 1h-0.5v2h0.5c0.55 0 1 0.45 1 1v1c0 1.1 0.9 2 2 2h1.5v-2h-1.5v-1c0 -1.1 -0.9 -2 -2 -2zM17 13c-1.1 0 -2 -0.9 -2 -2v-1h-1.5v-2h1.5c1.1 0 2 0.9 2 2v1c0 0.55 0.45 1 1 1h0.5v2h-0.5c-0.55 0 -1 0.45 -1 1v1c0 1.1 -0.9 2 -2 2h-1.5v-2h1.5v-1c0 -1.1 0.9 -2 2 -2Z"/></path></g></mask><rect width="24" height="24" fill="currentColor" mask="url(#lineMdCloudAltBraces0)"/></svg>